<svg width="9" height="11" viewBox="0 0 9 11" fill="none" xmlns="http://www.w3.org/2000/svg">
<path d="M7.01018 1.80437C6.63456 1.39865 6.12693 1.17001 5.59723 1.16798C5.06754 1.16594 4.55843 1.39068 4.18018 1.7935L0.85018 5.34786C0.755759 5.44884 0.628356 5.50508 0.495854 5.50427C0.363352 5.50345 0.236543 5.44565 0.14318 5.34351C0.0970347 5.29298 0.0605432 5.23303 0.0358052 5.16712C0.0110672 5.10121 -0.00142876 5.03064 -0.000964062 4.95946C-0.000499367 4.88829 0.0129168 4.81791 0.0385129 4.75239C0.064109 4.68687 0.10138 4.62749 0.14818 4.57768L3.47718 1.02441C4.04357 0.420481 4.80621 0.0833096 5.59985 0.0859529C6.39349 0.0885962 7.15421 0.430841 7.71718 1.03853C7.99646 1.34009 8.2181 1.69865 8.36934 2.0936C8.52058 2.48855 8.59844 2.91209 8.59844 3.33984C8.59844 3.7676 8.52058 4.19114 8.36934 4.58609C8.2181 4.98104 7.99646 5.3396 7.71718 5.64116L3.38518 10.3274C3.01683 10.7252 2.51855 10.9484 1.99918 10.9484C1.47981 10.9484 0.981532 10.7252 0.61318 10.3274C0.431254 10.1309 0.286885 9.89721 0.188372 9.63985C0.0898582 9.38249 0.0391438 9.10652 0.0391438 8.8278C0.0391438 8.54908 0.0898582 8.2731 0.188372 8.01574C0.286885 7.75839 0.431254 7.52472 0.61318 7.32817L4.65318 2.95801C4.74703 2.85678 4.87392 2.79997 5.00618 2.79997C5.13844 2.79997 5.26533 2.85678 5.35918 2.95801C5.4055 3.00817 5.44225 3.06776 5.46733 3.13338C5.49241 3.19899 5.50532 3.26934 5.50532 3.34039C5.50532 3.41143 5.49241 3.48178 5.46733 3.5474C5.44225 3.61301 5.4055 3.67261 5.35918 3.72276L1.32018 8.09292C1.23102 8.18923 1.16026 8.30373 1.11197 8.42985C1.06369 8.55597 1.03883 8.69121 1.03883 8.8278C1.03883 8.96439 1.06369 9.09963 1.11197 9.22575C1.16026 9.35186 1.23102 9.46637 1.32018 9.56268C1.5007 9.75823 1.74524 9.86805 2.00018 9.86805C2.25512 9.86805 2.49966 9.75823 2.68018 9.56268L7.01018 4.87641C7.19655 4.67511 7.34445 4.43577 7.44537 4.17217C7.54629 3.90856 7.59825 3.62588 7.59825 3.34039C7.59825 3.05489 7.54629 2.77221 7.44537 2.50861C7.34445 2.245 7.19655 2.00566 7.01018 1.80437Z" fill="#0A56DA"/>
</svg>
